PathFileType	4	(X/Y/Z)	C:\Users\dbl\Desktop\LZH\BX\Trimmed_bx_n_10_901.trc
DataRate	CameraRate	NumFrames	NumMarkers	Units	OrigDataRate	OrigDataStartFrame	OrigNumFrames
50.00	50.00	      7	43	mm	50.00	760	      1518
Frame#	Time	Top.Head			R.Acromium			L.Acromium			Sternum			R.ASIS			L.ASIS			V.Sacral			R.Thigh.Upper			R.Thigh.Front			R.Thigh.Rear			R.Knee.Lat			R.Knee.Med			R.Shank.Upper			R.Shank.Front			R.Shank.Rear			R.Ankle.Lat			R.Midfoot.Lat			R.Toe.Lat			R.Toe.Tip			R.Toe.Med			R.Ankle.Med			R.Midfoot.Sup			R.Heel			L.Thigh.Upper			L.Thigh.Front			L.Thigh.Rear			L.Knee.Lat			L.Knee.Med			L.Shank.Upper			L.Shank.Front			L.Shank.Rear			L.Ankle.Lat			L.Midfoot.Lat			L.Toe.Lat			L.Toe.Tip			L.Toe.Med			L.Ankle.Med			L.Midfoot.Sup			L.Heel			origin1 front left			origin2 front right			origin 3 back right			origin 4 back leftt			
		X1	Y1	Z1	X2	Y2	Z2	X3	Y3	Z3	X4	Y4	Z4	X5	Y5	Z5	X6	Y6	Z6	X7	Y7	Z7	X8	Y8	Z8	X9	Y9	Z9	X10	Y10	Z10	X11	Y11	Z11	X12	Y12	Z12	X13	Y13	Z13	X14	Y14	Z14	X15	Y15	Z15	X16	Y16	Z16	X17	Y17	Z17	X18	Y18	Z18	X19	Y19	Z19	X20	Y20	Z20	X21	Y21	Z21	X22	Y22	Z22	X23	Y23	Z23	X24	Y24	Z24	X25	Y25	Z25	X26	Y26	Z26	X27	Y27	Z27	X28	Y28	Z28	X29	Y29	Z29	X30	Y30	Z30	X31	Y31	Z31	X32	Y32	Z32	X33	Y33	Z33	X34	Y34	Z34	X35	Y35	Z35	X36	Y36	Z36	X37	Y37	Z37	X38	Y38	Z38	X39	Y39	Z39	X40	Y40	Z40	X41	Y41	Z41	X42	Y42	Z42	X43	Y43	Z43	

760	15.180	-749.92981	255.56140	1828.15393	-716.46802	78.71053	1541.29236	-691.35559	417.56879	1549.97449	-576.39752	247.47462	1365.82288	-543.20215	122.08183	1039.10059	-530.22174	350.68002	1043.42859	-742.88916	237.17409	1049.47461	-613.67053	73.80986	833.53894	-528.47260	137.81157	808.37604	-642.50385	92.94109	723.58258	-661.46094	111.91468	607.54663	-640.03967	220.26486	564.93481	-692.44818	113.38545	540.32684	-614.26807	163.93221	526.61401	-701.13287	107.30029	488.43628	-687.80939	144.93915	211.48466	-608.15985	88.62879	164.07658	-558.87213	71.12075	162.03145	-479.52945	117.20539	155.19270	-529.85571	166.29536	164.88165	-640.53760	222.90807	222.04393	-595.76154	200.05373	173.58337	-722.99481	211.39731	167.98547	-615.34680	430.36713	857.26581	-533.35498	381.21454	818.84802	-636.69965	420.09225	743.43225	-652.38135	403.82120	608.18951	-628.41772	302.66693	570.36945	-667.84863	407.29099	561.71472	-610.30188	352.07614	537.95294	-720.20764	411.88223	498.11499	-670.76501	412.29620	215.38091	-572.32495	458.00977	164.15779	-533.48798	466.86029	157.04651	-470.08081	415.14090	162.91743	-518.13837	375.20645	176.97893	-641.39917	320.71259	207.93715	-589.43103	338.38589	170.48598	-728.09790	345.77130	161.00836	-443.70532	448.64380	146.86929	-450.19818	75.08636	143.26093	-806.44769	82.69404	142.02657	-799.15131	456.98398	144.51241	
761	15.200	-748.72302	255.62187	1828.34180	-715.67444	78.53151	1541.35107	-691.08197	417.43866	1549.94800	-576.35486	247.45480	1365.48889	-543.00323	122.10472	1039.11646	-530.73364	350.86026	1043.57703	-743.03687	236.91194	1049.49756	-613.42108	73.90278	833.42780	-528.29907	138.03177	808.34149	-642.25629	92.99328	723.52533	-661.24872	111.99030	607.50598	-640.07104	220.33749	564.90155	-692.32782	113.30752	540.33105	-614.21313	164.01163	526.61731	-701.05328	107.30952	488.41812	-687.78461	144.92867	211.52667	-608.15247	88.68530	164.11763	-558.86053	71.12777	162.05193	-479.50598	117.22025	155.17763	-529.82367	166.35818	164.79276	-640.54327	222.89609	222.09076	-595.73334	200.13329	173.51477	-722.99561	211.40079	167.97414	-615.53821	430.44128	857.31610	-533.49664	381.19263	818.93103	-636.86920	420.01736	743.36212	-652.48804	403.72861	608.13715	-628.42834	302.51892	570.40723	-668.02246	407.13202	561.67224	-610.36499	351.98694	538.00476	-720.33344	411.73776	498.10367	-670.77301	412.26202	215.39572	-572.34302	457.95566	164.14804	-533.49487	466.85303	157.05096	-470.05426	415.15540	162.90688	-518.07245	375.18469	176.94278	-641.37329	320.70703	207.89342	-589.41284	338.34622	170.47462	-728.04724	345.76132	161.00153	-443.69446	448.65076	146.82730	-450.20267	75.08248	143.28061	-806.44171	82.67912	142.00612	-799.15533	456.96198	144.48735	
762	15.220	-747.53204	255.72624	1828.52661	-714.90479	78.38144	1541.40686	-690.81976	417.34375	1549.92981	-576.35101	247.46080	1365.13953	-542.81030	122.17406	1039.11621	-531.26385	351.04932	1043.72229	-743.22607	236.62680	1049.53394	-613.17139	73.98534	833.32672	-528.15912	138.24384	808.30072	-641.99573	93.02412	723.46381	-661.02521	112.03526	607.47668	-640.15802	220.42957	564.86633	-692.17163	113.19666	540.33221	-614.16406	164.08168	526.60797	-700.95624	107.30667	488.39023	-687.75409	144.90562	211.57069	-608.14374	88.72346	164.15614	-558.85925	71.14362	162.06473	-479.48038	117.23825	155.16389	-529.80292	166.40926	164.71022	-640.54541	222.86952	222.16580	-595.71655	200.21452	173.46664	-722.99750	211.40053	167.96042	-615.84039	430.54691	857.36646	-533.71008	381.21609	819.01208	-637.15271	419.93094	743.26941	-652.65601	403.64151	608.09613	-628.47827	302.35950	570.46265	-668.24554	406.96680	561.61548	-610.43323	351.91895	538.04126	-720.50452	411.58694	498.10928	-670.78748	412.22482	215.41779	-572.38708	457.89816	164.11322	-533.50696	466.85876	157.05064	-470.03458	415.17969	162.89925	-517.99408	375.15244	176.88399	-641.36572	320.70084	207.86708	-589.40277	338.29715	170.48906	-727.99384	345.75305	160.99045	-443.67609	448.67014	146.77992	-450.20337	75.07130	143.30220	-806.43372	82.65465	141.98549	-799.16278	456.94241	144.47368	
763	15.240	-746.33002	255.86656	1828.69995	-714.16541	78.24919	1541.45935	-690.57532	417.27435	1549.92310	-576.38239	247.49341	1364.78442	-542.66211	122.29192	1039.09460	-531.80920	351.24527	1043.86230	-743.43604	236.34579	1049.58386	-612.97028	74.04294	833.25897	-528.08746	138.43265	808.26300	-641.76770	93.02396	723.40753	-660.83417	112.04244	607.45227	-640.29047	220.52695	564.84174	-692.01788	113.07953	540.32208	-614.13910	164.13466	526.58899	-700.86530	107.28548	488.35498	-687.72400	144.87512	211.60869	-608.13483	88.74355	164.17996	-558.86951	71.16562	162.06534	-479.45572	117.25822	155.15555	-529.79150	166.44914	164.63896	-640.54480	222.84157	222.23763	-595.71021	200.28397	173.44044	-722.99982	211.39569	167.94713	-616.25824	430.65015	857.39838	-534.01355	381.29169	819.06531	-637.54285	419.86389	743.17896	-652.89435	403.57208	608.07214	-628.60785	302.22153	570.51410	-668.52448	406.82458	561.56036	-610.52924	351.87903	538.06042	-720.73004	411.45740	498.12936	-670.81024	412.18576	215.44882	-572.44403	457.86517	164.06892	-533.52539	466.87943	157.04356	-470.01898	415.21478	162.89926	-517.92004	375.11618	176.81316	-641.37952	320.68933	207.87019	-589.39685	338.24371	170.52988	-727.95062	345.74396	160.98026	-443.65295	448.69897	146.73724	-450.20227	75.05919	143.32327	-806.42877	82.62754	141.97069	-799.16968	456.92822	144.47282	
764	15.260	-745.09381	256.02969	1828.85596	-713.45514	78.12957	1541.51135	-690.34052	417.22107	1549.92908	-576.44061	247.54749	1364.43591	-542.59564	122.44687	1039.05591	-532.36658	351.44617	1043.99512	-743.65845	236.10083	1049.63916	-612.85992	74.07205	833.23682	-528.10052	138.59502	808.24438	-641.60944	93.00037	723.36279	-660.70807	112.02056	607.42493	-640.43915	220.61421	564.83746	-691.90851	112.98733	540.29700	-614.14832	164.17282	526.57172	-700.80328	107.24683	488.32053	-687.69824	144.84184	211.63712	-608.12708	88.74776	164.18419	-558.88623	71.18823	162.05449	-479.43671	117.27812	155.15472	-529.78448	166.48152	164.58139	-640.54248	222.82230	222.28241	-595.70642	200.33180	173.43161	-723.00165	211.38727	167.93671	-616.76465	430.72229	857.39801	-534.40186	381.41220	819.07867	-638.00519	419.84705	743.11487	-653.19843	403.52768	608.06049	-628.84351	302.14352	570.54230	-668.85162	406.73566	561.52417	-610.66364	351.86868	538.06519	-721.00562	411.37006	498.15619	-670.83887	412.14905	215.48776	-572.49841	457.86755	164.03093	-533.54840	466.91049	157.03058	-470.00607	415.25879	162.90714	-517.86755	375.08542	176.74600	-641.41022	320.67117	207.90665	-589.38947	338.19446	170.58818	-727.92676	345.73453	160.97383	-443.63144	448.72852	146.71048	-450.20340	75.05244	143.34267	-806.42981	82.60593	141.96562	-799.17377	456.92023	144.47939	
765	15.280	-743.81384	256.19919	1828.99902	-712.76892	78.02561	1541.56787	-690.09790	417.18002	1549.94324	-576.51343	247.61337	1364.10535	-542.63483	122.61390	1039.01355	-532.93298	351.65002	1044.11890	-743.90137	235.91739	1049.69067	-612.86798	74.08267	833.25574	-528.19861	138.73250	808.25824	-641.54712	92.97017	723.33252	-660.66925	111.98896	607.39050	-640.57233	220.68002	564.85242	-691.87555	112.94347	540.25775	-614.19379	164.20351	526.56763	-700.78644	107.19803	488.29547	-687.67810	144.80901	211.65704	-608.12079	88.73869	164.17162	-558.89984	71.20618	162.03777	-479.42746	117.29548	155.16068	-529.77753	166.50836	164.53865	-640.54059	222.81911	222.28658	-595.69635	200.35437	173.43262	-723.00189	211.37750	167.93039	-617.31097	430.75150	857.36359	-534.84650	381.56128	819.05914	-638.49091	419.89514	743.08807	-653.55121	403.50922	608.05023	-629.17963	302.15176	570.54108	-669.20380	406.71921	561.52087	-610.82849	351.88446	538.06177	-721.31219	411.33228	498.17697	-670.86877	412.12155	215.52977	-572.54102	457.89651	164.00565	-533.57135	466.94330	157.01472	-469.99643	415.30618	162.91951	-517.84570	375.06885	176.69734	-641.44714	320.64828	207.96803	-589.37628	338.15952	170.64755	-727.92542	345.72696	160.97176	-443.61990	448.74689	146.70995	-450.20978	75.05511	143.35837	-806.43658	82.59512	141.97009	-799.17407	456.91714	144.48480	
766	15.300	-742.49792	256.35928	1829.14514	-712.10223	77.94426	1541.63452	-689.83160	417.15451	1549.95605	-576.58582	247.68082	1363.80066	-542.78430	122.76069	1038.98584	-533.50525	351.85498	1044.23132	-744.18054	235.80679	1049.73364	-613.00433	74.09521	833.29736	-528.37268	138.84529	808.30823	-641.59534	92.94782	723.31628	-660.73083	111.96855	607.35004	-640.67493	220.72272	564.87054	-691.93207	112.95610	540.20844	-614.27112	164.23364	526.57904	-700.82074	107.15018	488.28384	-687.66351	144.77971	211.67136	-608.11450	88.71977	164.15094	-558.90070	71.21633	162.02348	-479.42953	117.30830	155.17110	-529.76996	166.52780	164.51207	-640.54260	222.83653	222.24736	-595.67621	200.35356	173.43661	-722.99988	211.36899	167.92790	-617.84686	430.74799	857.30841	-535.30670	381.72086	819.02814	-638.95532	419.99927	743.09149	-653.92792	403.51459	608.03162	-629.57489	302.24753	570.52045	-669.54846	406.77548	561.55780	-611.00366	351.92014	538.05847	-721.62189	411.33957	498.17853	-670.89636	412.11069	215.56770	-572.57123	457.93314	163.98930	-533.58856	466.96924	156.99966	-469.99139	415.34827	162.93195	-517.85217	375.07095	176.67567	-641.47723	320.62332	208.03700	-589.35614	338.14651	170.68980	-727.94391	345.72281	160.97395	-443.62628	448.74344	146.74380	-450.22119	75.06819	143.36691	-806.44641	82.59422	141.98042	-799.16980	456.91776	144.48302	
